<svg id="fiverr-icon" viewBox="0 0 40 40" fill="none" xmlns="http://www.w3.org/2000/svg">
    <path fill-rule="evenodd" clip-rule="evenodd"
          d="M20 40C31.0457 40 40 31.0457 40 20C40 8.9543 31.0457 0 20 0C8.9543 0 0 8.9543 0 20C0 31.0457 8.9543 40 20 40ZM10.46 17.2C10.9571 17.2 11.36 16.7971 11.36 16.3C11.36 15.803 10.9571 15.4 10.46 15.4C9.96294 15.4 9.56 15.803 9.56 16.3C9.56 16.7971 9.96294 17.2 10.46 17.2ZM7.28 17.79H11.4V22H12.1V23.35H8.83V22H9.53V19.15H7.28V22H8.1V23.35H4.72V22H5.42V19.15H4.67V17.8H5.42V17.57C5.42 15.75 7.01 15.51 7.87 15.51C8.25 15.51 8.53 15.55 8.53 15.55V17.01C8.53 17.01 8.39 16.98 8.08 16.98C7.81 16.98 7.28 16.99 7.28 17.52V17.79ZM15.45 17.79H18.4V19.14H17.78L16.24 23.34H14.04L12.5 19.14H11.88V17.79H14.83V19.14H14.33L14.97 21.14C15.09 21.47 15.12 21.87 15.12 21.87H15.16C15.16 21.87 15.19 21.47 15.31 21.14L15.95 19.14H15.45V17.79ZM21.28 17.66C22.93 17.66 23.86 18.8 23.86 20.34C23.86 20.4401 23.8445 20.602 23.8325 20.7278C23.8229 20.8282 23.8156 20.9055 23.82 20.91H20.3C20.44 21.62 21 21.93 21.59 21.93C22.41 21.93 23.15 21.4 23.15 21.4L23.83 22.69C23.83 22.69 22.94 23.47 21.44 23.47C19.46 23.47 18.39 22.04 18.39 20.56C18.39 18.93 19.49 17.66 21.28 17.66ZM21.23 19.06C20.7 19.06 20.44 19.45 20.34 19.88H21.93C21.93 19.44 21.64 19.06 21.23 19.06ZM31.73 19.07H31.75C31.99 18.31 32.69 17.69 33.53 17.7C33.64 17.7 33.75 17.72 33.75 17.72V19.55C33.75 19.55 33.6 19.52 33.37 19.52C32.34 19.52 31.84 20.18 31.84 21.19V22H32.59V23.35H29.22V22H29.97V19.38C29.97 19.23 29.88 19.14 29.73 19.14H29.21V17.79H30.96C31.47 17.79 31.75 17.99 31.75 18.5V18.79C31.75 18.96 31.73 19.07 31.73 19.07ZM26.8 19.07H26.82C27.05 18.31 27.75 17.69 28.6 17.7C28.71 17.7 28.82 17.72 28.82 17.72V19.55C28.82 19.55 28.67 19.52 28.44 19.52C27.41 19.52 26.91 20.18 26.91 21.19V22H27.66V23.35H24.29V22H25.04V19.38C25.04 19.23 24.95 19.14 24.8 19.14H24.28V17.79H26.03C26.54 17.79 26.82 17.99 26.82 18.5V18.79C26.82 18.96 26.8 19.07 26.8 19.07Z"
          fill="currentColor"/>
</svg>
