<svg width="415" height="400" viewBox="0 0 415 400" fill="none" xmlns="http://www.w3.org/2000/svg">
    <circle cx="215" cy="200" r="40" fill="currentColor"/>
    <circle cx="214.5" cy="200.5" r="122.06" stroke="currentColor" stroke-width="0.88"/>
    <path d="M374.5 200C374.5 288.089 303.089 359.5 215 359.5C126.911 359.5 55.5 288.089 55.5 200C55.5 111.911 126.911 40.5 215 40.5C303.089 40.5 374.5 111.911 374.5 200Z"
          stroke="currentColor"/>
    <path d="M414.5 200C414.5 310.181 325.181 399.5 215 399.5C104.819 399.5 15.5 310.181 15.5 200C15.5 89.8192 104.819 0.5 215 0.5C325.181 0.5 414.5 89.8192 414.5 200Z"
          stroke="currentColor"/>
    <circle cx="91.5" cy="200.5" r="6.5" fill="#0466C8"/>
    <circle cx="55" cy="200" r="10" fill="#3895EA"/>
    <circle cx="15" cy="200" r="15" fill="#023E7D"/>
</svg>
