<svg id="github-icon" viewBox="0 0 70 70" fill="none" xmlns="http://www.w3.org/2000/svg">
    <path d="M35 0C15.6742 0 0 15.6713 0 35C0 50.4642 10.0275 63.5833 23.9371 68.2121C25.6842 68.5358 26.25 67.4508 26.25 66.5292V60.0133C16.5142 62.1308 14.4871 55.8833 14.4871 55.8833C12.8946 51.8379 10.5992 50.7617 10.5992 50.7617C7.42292 48.5887 10.8413 48.6354 10.8413 48.6354C14.3558 48.8804 16.205 52.2433 16.205 52.2433C19.3258 57.5925 24.3921 56.0467 26.39 55.1513C26.7021 52.8908 27.6092 51.345 28.6125 50.4729C20.8396 49.5833 12.6671 46.5821 12.6671 33.1742C12.6671 29.3504 14.035 26.2296 16.2721 23.7796C15.9104 22.8958 14.7117 19.3346 16.6133 14.5163C16.6133 14.5163 19.5533 13.5771 26.2412 18.1037C29.0325 17.3279 32.025 16.94 35 16.9254C37.975 16.94 40.9704 17.3279 43.7675 18.1037C50.4496 13.5771 53.3837 14.5163 53.3837 14.5163C55.2883 19.3375 54.0896 22.8988 53.7279 23.7796C55.9738 26.2296 57.33 29.3533 57.33 33.1742C57.33 46.6171 49.1429 49.5775 41.3496 50.4438C42.6038 51.5288 43.75 53.6579 43.75 56.9246V66.5292C43.75 67.4596 44.31 68.5533 46.0863 68.2092C59.9842 63.5746 70 50.4583 70 35C70 15.6713 54.3288 0 35 0Z"
          fill="currentColor"/>
</svg>
