<svg id="timer-icon" viewBox="0 0 70 70" fill="none" xmlns="http://www.w3.org/2000/svg">
    <path fill-rule="evenodd" clip-rule="evenodd"
          d="M35.0001 5C43.0759 5 50.4065 8.19105 55.7996 13.381C56.1093 13.6789 56.412 13.983 56.7078 14.2931C61.7631 19.5912 64.8985 26.7372 64.9976 34.6148C65.0008 34.8599 65.0009 35.105 64.9981 35.3499C64.8111 51.7114 51.5263 64.926 35.1378 64.9997C35.0385 65.0001 34.9392 65.0001 34.8399 64.9996C26.8413 64.9578 19.5834 61.7858 14.2286 56.646C13.9048 56.3353 13.5878 56.0172 13.2778 55.6917C8.23236 50.3966 5.10317 43.2591 5.00256 35.3915C4.99936 35.146 4.99917 34.9004 5.002 34.6545C5.09393 26.5073 8.43349 19.1402 13.7869 13.7868L10.2513 10.2513C9.06235 11.4402 7.96663 12.7072 6.96958 14.0406C3.16514 19.1285 0.797468 25.1843 0.16859 31.5694C-0.625099 39.6278 1.39992 47.7122 5.89861 54.445C10.3973 61.1777 17.0913 66.1423 24.8401 68.4929C32.5888 70.8435 40.9129 70.4345 48.394 67.3358C55.875 64.237 62.0502 58.6402 65.8673 51.4989C69.6844 44.3576 70.9073 36.1137 69.3275 28.1718C67.7478 20.23 63.4632 13.0816 57.2038 7.94464C52.2442 3.87438 46.2879 1.26648 40.0001 0.358917C38.3522 0.121067 36.6815 0 35.0001 0V5Z"
          fill="currentColor"/>
    <path d="M38.4188 45.4879C34.5746 46.9994 17.2057 17.2036 17.2057 17.2036C17.2057 17.2036 46.9983 34.5803 45.4899 38.4169C44.3594 41.2919 41.2566 44.3721 38.4188 45.4879Z"
          fill="currentColor" stroke="currentColor" stroke-miterlimit="11.4737"/>
</svg>
