<svg id="alarm-icon" viewBox="0 0 75 82" fill="none" xmlns="http://www.w3.org/2000/svg">
    <path d="M37.0005 23V53" stroke="currentColor" stroke-width="5" stroke-linecap="round"/>
    <path d="M24.0005 47H42.0005" stroke="currentColor" stroke-width="5" stroke-linecap="round"/>
    <circle cx="37.0005" cy="47" r="32.5" stroke="currentColor" stroke-width="5"/>
    <path d="M30.6298 10.0515C31.1081 9.77533 31.2765 9.15915 30.9438 8.7183C29.3905 6.65987 26.8653 5.33501 23.7916 4.99426C20.3213 4.60953 16.4361 5.51088 12.9909 7.5C9.54561 9.48912 6.82245 12.4031 5.42046 15.6009C4.17873 18.4331 4.06347 21.2824 5.06947 23.6569C5.28493 24.1654 5.90277 24.3276 6.38106 24.0515L18.5054 17.0515L30.6298 10.0515Z"
          fill="currentColor"/>
    <path d="M67.6298 24.0515C68.1081 24.3276 68.7259 24.1654 68.9413 23.6569C69.9473 21.2824 69.8321 18.4331 68.5904 15.6009C67.1884 12.4031 64.4652 9.48912 61.02 7.5C57.5747 5.51088 53.6895 4.60954 50.2192 4.99426C47.1456 5.33501 44.6203 6.65987 43.067 8.7183C42.7343 9.15915 42.9028 9.77533 43.3811 10.0515L55.5054 17.0515L67.6298 24.0515Z"
          fill="currentColor"/>
</svg>
